<?xml version="1.0" encoding="UTF-8" standalone="no"?>
<!-- Created with Inkscape (http://www.inkscape.org/) -->

<svg
   xmlns:dc="http://purl.org/dc/elements/1.1/"
   xmlns:cc="http://creativecommons.org/ns#"
   xmlns:rdf="http://www.w3.org/1999/02/22-rdf-syntax-ns#"
   xmlns:svg="http://www.w3.org/2000/svg"
   xmlns="http://www.w3.org/2000/svg"
   xmlns:sodipodi="http://sodipodi.sourceforge.net/DTD/sodipodi-0.dtd"
   xmlns:inkscape="http://www.inkscape.org/namespaces/inkscape"
   width="300"
   height="50"
   id="svg4544"
   version="1.1"
   inkscape:version="0.48.4 r9939"
   sodipodi:docname="EVOlogo.svg">
  <defs
     id="defs4546" />
  <sodipodi:namedview
     id="base"
     pagecolor="#ffffff"
     bordercolor="#666666"
     borderopacity="1.0"
     inkscape:pageopacity="0.0"
     inkscape:pageshadow="2"
     inkscape:zoom="5.6"
     inkscape:cx="59.41648"
     inkscape:cy="37.759599"
     inkscape:document-units="px"
     inkscape:current-layer="g3962"
     showgrid="false"
     inkscape:window-width="1280"
     inkscape:window-height="660"
     inkscape:window-x="-8"
     inkscape:window-y="-8"
     inkscape:window-maximized="1" />
  <metadata
     id="metadata4549">
    <rdf:RDF>
      <cc:Work
         rdf:about="">
        <dc:format>image/svg+xml</dc:format>
        <dc:type
           rdf:resource="http://purl.org/dc/dcmitype/StillImage" />
        <dc:title></dc:title>
      </cc:Work>
    </rdf:RDF>
  </metadata>
  <g
     inkscape:label="Capa 1"
     inkscape:groupmode="layer"
     id="layer1"
     transform="translate(0,-1002.3622)">
    <g
       id="g3962"
       transform="matrix(2.4034721,0,0,2.4034721,17.777788,-1476.6692)"
       style="opacity:1">
      <path
         sodipodi:nodetypes="ccssssssssssssscscccccccc"
         inkscape:connector-curvature="0"
         id="path7357"
         d="m 13.265637,1039.0593 0.595109,0.8016 c 0,0 0.171294,0.1321 0.156592,0.4555 -0.01471,0.3234 -0.13523,0.7864 0.129352,0.9481 0.264586,0.1617 0.33808,0.3527 0.514466,0.6761 0.176389,0.3234 0.558564,1.2935 0.396876,1.661 -0.16169,0.3675 -0.602662,0.2793 -0.676156,0.294 -0.07349,0.015 0.146989,0.1764 0.176389,0.3822 0.02939,0.2058 -0.02939,0.5438 -0.220487,0.632 -0.191088,0.088 -0.264582,0.1911 -0.132291,0.3234 0.132291,0.1323 0.382174,0.4998 -0.01471,0.735 -0.396873,0.2351 -0.396873,0 -0.382174,0.2792 0.01471,0.2793 0.514465,1.1025 -0.191088,1.4699 -0.705553,0.3675 -0.485069,0.4998 -1.763885,0.4998 -1.278815,0 -1.381706,0.4263 -1.528699,0.7203 -0.146989,0.2939 -0.146989,0.7055 -0.146989,0.7055 0,0 -2.0696229,-2.0549 -3.0162397,-2.5488 -0.94662,-0.4939 -2.551753,-2.2225 -2.551753,-2.2225 l 0,-0.4939 0.5762013,-2.3871 0.5762012,-1.2347 1.728607,-0.6585 1.8520777,-0.6585 3.4160545,-0.3293 z"
         style="fill:none;stroke:#ffffff;stroke-width:1.04016186;stroke-linecap:butt;stroke-linejoin:miter;stroke-miterlimit:4;stroke-opacity:1;stroke-dasharray:none" />
      <path
         inkscape:connector-curvature="0"
         id="path7361"
         d="m 3.0459831,1045.2009 c 0,0 1.4816622,-0.082 2.7163796,-1.0701 1.2347207,-0.9878 0.6996753,-1.7698 0.6996753,-2.1402 0,-0.3704 0.6585161,-1.0701 1.1524025,-1.0701 0.4938895,0 1.2347206,0.4939 1.2347206,0.9055 0,0.4115 0.7819869,0.3292 0.7819869,0.3292 0,0 0.411575,0.041 0.411575,-0.3292 0,-0.3704 -0.1234744,-1.1113 0.2881,-1.3171 0.411572,-0.2057 1.399348,-0.5762 1.728607,-0.8231 0.329257,-0.2469 0.658516,-0.535 0.987773,-0.2881 0.32926,0.2469 0.08231,0.4939 0.493889,0.6174 0.411572,0.1234 1.687448,0 1.728604,-0.5762 0.04116,-0.5763 -1.440503,-4.4862 -4.156886,-4.8978 -2.7163794,-0.4115 -4.8154019,-1.7697 -7.2848399,1.6875 -2.4694348,3.4572 -1.605133,5.3916 -2.0167076,6.3794 -0.4115714,0.9877 -0.86430185,2.3871 1.2347206,2.5929 z"
         style="fill:#ffffff;fill-opacity:1;stroke:none" />
      <rect
         style="fill:#a10083;fill-opacity:1;fill-rule:nonzero;stroke:none"
         id="rect7383-4-7"
         width="12.659765"
         height="1.1618356"
         x="19.438633"
         y="1047.9888" />
      <rect
         style="fill:#047dcc;fill-opacity:1;fill-rule:nonzero;stroke:none"
         id="rect7383-4-0-38"
         width="12.659765"
         height="1.1618356"
         x="32.025574"
         y="1047.9888" />
      <rect
         style="fill:#2ea855;fill-opacity:1;fill-rule:nonzero;stroke:none"
         id="rect7383-4-0-9-0"
         width="12.659765"
         height="1.1618356"
         x="44.716431"
         y="1047.9888" />
      <rect
         style="fill:#e9e5e6;fill-opacity:1;fill-rule:nonzero;stroke:none"
         id="rect7383-4-0-9-4-5"
         width="12.659765"
         height="1.1618356"
         x="57.357529"
         y="1047.9888" />
      <rect
         style="fill:#e9a802;fill-opacity:1;fill-rule:nonzero;stroke:none"
         id="rect7383-4-0-9-8-6"
         width="12.659765"
         height="1.1618356"
         x="70.048363"
         y="1047.9888" />
      <rect
         style="fill:#de5c10;fill-opacity:1;fill-rule:nonzero;stroke:none"
         id="rect7383-4-0-9-4-8-9"
         width="12.659765"
         height="1.1618356"
         x="82.689499"
         y="1047.9888" />
      <rect
         style="fill:#ca251f;fill-opacity:1;fill-rule:nonzero;stroke:none"
         id="rect7383-4-0-9-8-2-3"
         width="12.659765"
         height="1.1618356"
         x="95.380379"
         y="1047.9888" />
      <g
         transform="matrix(0.32528042,0,0,0.32528042,-53.103819,861.7057)"
         style="font-size:40px;font-style:normal;font-weight:normal;line-height:125%;letter-spacing:0px;word-spacing:0px;fill:#ffffff;fill-opacity:1;stroke:#ffffff;stroke-width:0.12790956;stroke-miterlimit:4;stroke-opacity:1;font-family:Sans"
         id="flowRoot6765">
        <path
           d="m 223.62034,546.88554 c -0.0374,0.89733 0.093,1.94512 0.39111,3.14337 0.29814,1.19828 0.9885,2.25511 2.07108,3.17048 1.08257,0.91539 2.78181,1.39741 5.09771,1.44605 l 4.49995,0 c 1.04542,0.01 1.753,0.25718 2.12272,0.74199 0.36968,0.48484 0.54276,1.14817 0.51924,1.98998 l 0,1.57598 c -0.0448,1.08682 -0.43468,1.78765 -1.16948,2.10247 -0.73484,0.31484 -1.54566,0.45467 -2.43247,0.4195 -1.95241,-0.008 -3.91705,-0.0617 -5.89393,-0.16 -1.9769,-0.0983 -3.41154,-0.19166 -4.30394,-0.28 l 0,4.40195 c 1.48322,0.44016 3.1202,0.75132 4.91093,0.93348 1.79072,0.18217 3.91969,0.27033 6.38692,0.2645 2.07004,0.0872 3.91535,-0.39516 5.53593,-1.44698 1.62054,-1.05182 2.47586,-3.19612 2.56597,-6.43292 l 0,-1.94997 c 0.0702,-1.73905 -0.36623,-3.43686 -1.30924,-5.09344 -0.94304,-1.65654 -2.81393,-2.54537 -5.61267,-2.66646 l -4.62394,0 c -1.12375,0.0275 -1.93324,-0.15248 -2.42847,-0.54 -0.49525,-0.38747 -0.73775,-1.14746 -0.72749,-2.27997 l 0,-1.42998 c 0.008,-1.31342 0.34515,-2.13399 1.01198,-2.46172 0.66682,-0.32768 1.61614,-0.45376 2.84797,-0.37824 0.53042,7.8e-4 1.40108,0.0186 2.61196,0.0535 1.21086,0.0349 2.48329,0.0824 3.81729,0.14237 1.33396,0.06 2.45084,0.12808 3.35062,0.20414 l 0,-4.40194 c -1.22004,-0.35297 -2.86944,-0.64246 -4.94819,-0.86849 -2.07877,-0.22597 -4.20266,-0.32247 -6.37166,-0.2895 -2.28998,-0.0186 -4.16995,0.52465 -5.63993,1.62973 -1.46998,1.10514 -2.22997,3.08186 -2.27997,5.93018 z"
           style="font-variant:normal;font-weight:bold;font-stretch:normal;text-align:center;letter-spacing:-0.2px;word-spacing:-1.4082402px;text-anchor:middle;fill:#ffffff;fill-rule:nonzero;stroke:#ffffff;stroke-opacity:0;font-family:exo;-inkscape-font-specification:exo"
           id="path3991" />
        <path
           d="m 246.54609,541.92161 c 0.005,0.28335 0.095,0.50668 0.27,0.66999 0.175,0.16335 0.40499,0.24669 0.68999,0.25 l 4.19995,0 c 0.2824,-8.1e-4 0.50207,-0.0792 0.65899,-0.235 0.15691,-0.15581 0.23657,-0.38414 0.239,-0.68499 l 0,-3.54596 c 7e-5,-0.28663 -0.0746,-0.5233 -0.224,-0.70999 -0.14942,-0.18663 -0.37409,-0.2833 -0.67399,-0.28999 l -4.19995,0 c -0.32,0.004 -0.55999,0.0959 -0.71999,0.27499 -0.16,0.1792 -0.24,0.42086 -0.24,0.72499 z m 0.202,24.39368 5.59993,0 0,-21.23972 -5.59993,0 z"
           style="font-variant:normal;font-weight:bold;font-stretch:normal;text-align:center;letter-spacing:-0.2px;word-spacing:-1.4082402px;text-anchor:middle;fill:#ffffff;fill-rule:nonzero;stroke:#ffffff;stroke-opacity:0;font-family:exo;-inkscape-font-specification:exo"
           id="path3993" />
        <path
           d="m 255.3066,562.22135 c 0.0155,1.01811 0.21749,1.87635 0.60599,2.57471 0.38849,0.69837 0.87048,1.20611 1.44598,1.52324 l -1.86398,1.93997 0,2.69597 c 0.0408,2.09588 0.67416,3.64802 1.89998,4.65643 1.22581,1.0084 2.79912,1.50956 4.71994,1.50349 l 5.99992,0 c 2.56995,-0.0654 4.33493,-0.70959 5.29493,-1.93248 0.95997,-1.22291 1.41496,-2.63205 1.36499,-4.22744 l 0,-2.29998 c -0.0217,-2.13805 -0.58862,-3.72236 -1.70068,-4.75294 -1.11211,-1.03056 -2.63919,-1.54289 -4.58124,-1.53697 l -6.51792,0 c -0.4549,0.0134 -0.83527,-0.0494 -1.14111,-0.18825 -0.30586,-0.13887 -0.46481,-0.43412 -0.47687,-0.88574 0.0274,-0.44587 0.21708,-0.71811 0.56899,-0.81674 0.35191,-0.0986 0.70157,-0.13837 1.04899,-0.11925 l 4.91994,0 c 2.92219,-0.10624 4.88067,-0.91373 5.87542,-2.42247 0.99472,-1.50872 1.45621,-3.0812 1.38449,-4.71744 -0.01,-1.23192 -0.0966,-2.133 -0.25975,-2.70321 -0.16323,-0.57019 -0.34331,-1.05576 -0.54024,-1.45673 l 2.35997,-0.71999 0,-3.33996 -12.91984,0 c -2.40052,-0.002 -4.22541,0.62251 -5.47468,1.87498 -1.24928,1.2525 -1.87768,3.14747 -1.88522,5.68492 -0.0124,1.10267 0.15791,2.20832 0.51099,3.31696 0.35308,1.10866 0.9634,1.96432 1.83098,2.56697 -0.85891,0.28933 -1.48657,0.77816 -1.88298,1.46648 -0.39641,0.68833 -0.59208,1.46015 -0.58699,2.31547 z m 5.80992,8.05189 0,-3.52995 c 0.0217,0.006 0.206,0.03 0.55284,0.072 0.34683,0.042 0.72587,0.066 1.13714,0.072 l 4.30795,0 c 0.78159,0.0135 1.32712,0.19019 1.63658,0.53001 0.30943,0.33982 0.45789,0.8118 0.44539,1.41596 l 0,1.54998 c 0.0318,0.63636 -0.0918,1.16361 -0.37099,1.58173 -0.27918,0.41811 -0.90484,0.63486 -1.87698,0.65024 l -3.31596,0 c -0.71733,0.034 -1.31166,-0.093 -1.78298,-0.38124 -0.47133,-0.28821 -0.71566,-0.94179 -0.73299,-1.96073 z m -0.082,-17.71777 c -0.0318,-0.82047 0.12474,-1.52846 0.46949,-2.12397 0.34474,-0.59548 1.06823,-0.90747 2.17047,-0.93599 l 2.14797,0 c 0.97319,-0.0104 1.66826,0.22369 2.08523,0.70235 0.41694,0.47869 0.63252,1.26456 0.64674,2.35761 0.0362,0.97925 -0.14272,1.76974 -0.53675,2.37147 -0.39405,0.60175 -1.11245,0.91125 -2.15522,0.92849 l -2.24797,0 c -0.97374,-0.015 -1.65124,-0.31999 -2.03247,-0.91499 -0.38125,-0.59498 -0.56375,-1.38997 -0.54749,-2.38497 z"
           style="font-variant:normal;font-weight:bold;font-stretch:normal;text-align:center;letter-spacing:-0.2px;word-spacing:-1.4082402px;text-anchor:middle;fill:#ffffff;fill-rule:nonzero;stroke:#ffffff;stroke-opacity:0;font-family:exo;-inkscape-font-specification:exo"
           id="path3995" />
        <path
           d="m 277.63047,559.21539 c -0.0448,2.08181 0.39383,3.83112 1.31598,5.24793 0.92216,1.41681 2.5968,2.15414 5.02394,2.21197 1.56643,-0.0299 2.83099,-0.30808 3.7937,-0.83449 0.96268,-0.52641 1.94475,-1.12157 2.94621,-1.78548 l 1.09999,2.25997 4.49994,0 0,-21.23972 -5.59993,0 0,15.2598 c -0.79492,0.62792 -1.57507,1.09208 -2.34047,1.39248 -0.76542,0.30042 -1.69657,0.44959 -2.79346,0.4475 -0.71113,0.0123 -1.27737,-0.20233 -1.69873,-0.64399 -0.42138,-0.44166 -0.63712,-1.18432 -0.64724,-2.22797 l 0,-14.22782 -5.59993,0 z"
           style="font-variant:normal;font-weight:bold;font-stretch:normal;text-align:center;letter-spacing:-0.2px;word-spacing:-1.4082402px;text-anchor:middle;fill:#ffffff;fill-rule:nonzero;stroke:#ffffff;stroke-opacity:0;font-family:exo;-inkscape-font-specification:exo"
           id="path3997" />
        <path
           d="m 299.46172,541.92161 c 0.005,0.28335 0.095,0.50668 0.26999,0.66999 0.175,0.16335 0.405,0.24669 0.68999,0.25 l 4.19995,0 c 0.28241,-8.1e-4 0.50207,-0.0792 0.65899,-0.235 0.15691,-0.15581 0.23658,-0.38414 0.239,-0.68499 l 0,-3.54596 c 8e-5,-0.28663 -0.0746,-0.5233 -0.224,-0.70999 -0.14942,-0.18663 -0.37408,-0.2833 -0.67399,-0.28999 l -4.19995,0 c -0.31999,0.004 -0.55999,0.0959 -0.71999,0.27499 -0.16,0.1792 -0.23999,0.42086 -0.23999,0.72499 z m 0.20199,24.39368 5.59993,0 0,-21.23972 -5.59993,0 z"
           style="font-variant:normal;font-weight:bold;font-stretch:normal;text-align:center;letter-spacing:-0.2px;word-spacing:-1.4082402px;text-anchor:middle;fill:#ffffff;fill-rule:nonzero;stroke:#ffffff;stroke-opacity:0;font-family:exo;-inkscape-font-specification:exo"
           id="path3999" />
        <path
           d="m 308.32422,555.59543 c -0.0458,3.86396 0.44583,6.65792 1.47498,8.38189 1.02915,1.72398 2.87079,2.56997 5.52493,2.53797 1.71843,0.0232 3.57198,-0.0237 5.56068,-0.14075 1.98866,-0.11704 3.76172,-0.44345 5.31918,-0.97923 l 0,-3.77995 c -1.435,0.21008 -2.70498,0.33541 -3.80995,0.37599 -1.105,0.0406 -2.43498,0.0559 -3.98995,0.046 -1.51316,0.0704 -2.63881,-0.12737 -3.37696,-0.59324 -0.73816,-0.46587 -1.10582,-1.6221 -1.10298,-3.46871 l 6.75991,0 c 1.92663,0.0148 3.39327,-0.39882 4.39994,-1.24098 1.00664,-0.84215 1.5133,-2.20179 1.51998,-4.07895 0.009,-3.40244 -0.72301,-5.57241 -2.19597,-6.50992 -1.47299,-0.93746 -3.74096,-1.34746 -6.80391,-1.22998 -3.33363,-0.12548 -5.72226,0.51352 -7.16591,1.91698 -1.44365,1.4035 -2.14831,4.32446 -2.11397,8.76288 z m 5.59993,-1.63998 c -0.0372,-2.20554 0.2552,-3.57235 0.87724,-4.10044 0.62202,-0.52806 1.66493,-0.74789 3.12871,-0.65949 1.3058,-0.0354 2.15462,0.15839 2.54646,0.58124 0.39182,0.42288 0.56765,1.28712 0.5275,2.59271 -9.8e-4,0.50884 -0.15056,0.89967 -0.44875,1.17249 -0.29821,0.27284 -0.73929,0.41067 -1.32323,0.41349 z"
           style="font-variant:normal;font-weight:bold;font-stretch:normal;text-align:center;letter-spacing:-0.2px;word-spacing:-1.4082402px;text-anchor:middle;fill:#ffffff;fill-rule:nonzero;stroke:#ffffff;stroke-opacity:0;font-family:exo;-inkscape-font-specification:exo"
           id="path4001" />
        <path
           d="m 329.45184,566.31529 5.59993,0 0,-15.2598 c 0.7949,-0.62789 1.57506,-1.09205 2.34047,-1.39248 0.7654,-0.3004 1.69655,-0.44956 2.79347,-0.44749 0.7111,-0.0123 1.27734,0.20234 1.69872,0.64399 0.42136,0.44167 0.6371,1.18433 0.64725,2.22797 l 0,14.22781 5.59992,0 0,-14.13981 c 0.0448,-2.08179 -0.39385,-3.8311 -1.31598,-5.24794 -0.92217,-1.41679 -2.59682,-2.15411 -5.02394,-2.21197 -1.58432,0.0272 -2.88464,0.29985 -3.90095,0.81799 -1.01632,0.51818 -1.96264,1.11884 -2.83896,1.80198 l -1.09998,-2.25997 -4.49995,0 z"
           style="font-variant:normal;font-weight:bold;font-stretch:normal;text-align:center;letter-spacing:-0.2px;word-spacing:-1.4082402px;text-anchor:middle;fill:#ffffff;fill-rule:nonzero;stroke:#ffffff;stroke-opacity:0;font-family:exo;-inkscape-font-specification:exo"
           id="path4003" />
        <path
           d="m 350.97109,555.79543 c -0.0378,3.34367 0.46433,5.96422 1.50648,7.86165 1.04215,1.89743 2.8513,2.8635 5.42744,2.89821 1.28755,-0.0324 2.50537,-0.29558 3.65345,-0.78949 1.14805,-0.49391 2.06687,-1.02407 2.75646,-1.59048 l 0.99799,2.13997 4.60594,0 0,-31.39959 -5.58193,0 0,11.21985 c -1.006,-0.44509 -2.09598,-0.78584 -3.26996,-1.02223 -1.17399,-0.23635 -2.22798,-0.3556 -3.16195,-0.35775 -2.86401,0.0362 -4.75541,1.02838 -5.67418,2.97671 -0.91878,1.94837 -1.3387,4.63608 -1.25974,8.06315 z m 5.59993,-0.22 c 0.006,-2.63912 0.24891,-4.38826 0.72999,-5.24743 0.48107,-0.85914 1.1664,-1.2533 2.05598,-1.18248 0.96218,-0.002 1.84775,0.0601 2.65671,0.18674 0.80894,0.12664 1.57601,0.33039 2.30122,0.61125 l 0,10.51386 c -0.59659,0.39154 -1.30891,0.70645 -2.13697,0.94474 -0.82809,0.23829 -1.76841,0.36071 -2.82096,0.36724 -0.90708,0.038 -1.59741,-0.40203 -2.07098,-1.32023 -0.47358,-0.91819 -0.71191,-2.54275 -0.71499,-4.87369 z"
           style="font-variant:normal;font-weight:bold;font-stretch:normal;text-align:center;letter-spacing:-0.2px;word-spacing:-1.4082402px;text-anchor:middle;fill:#ffffff;fill-rule:nonzero;stroke:#ffffff;stroke-opacity:0;font-family:exo;-inkscape-font-specification:exo"
           id="path4005" />
        <path
           d="m 373.03671,555.99543 c -0.0548,3.76329 0.64324,6.46658 2.09398,8.10989 1.45072,1.64332 3.98269,2.44664 7.5959,2.40997 3.65169,0.0542 6.19465,-0.71415 7.6289,-2.30497 1.43421,-1.59081 2.1212,-4.3291 2.06097,-8.21489 0.0534,-4.15577 -0.64738,-7.06406 -2.10222,-8.72489 -1.45487,-1.66079 -3.98409,-2.45911 -7.58765,-2.39497 -3.54496,-0.0791 -6.05743,0.68918 -7.5374,2.30497 -1.47999,1.61583 -2.19748,4.55412 -2.15248,8.81489 z m 5.59993,0 c -0.0367,-2.87716 0.2307,-4.72372 0.80224,-5.53968 0.57153,-0.81593 1.66743,-1.17601 3.28771,-1.08024 1.63076,-0.096 2.72966,0.26356 3.29671,1.07874 0.56702,0.81521 0.83143,2.66227 0.79324,5.54118 0.0267,2.6973 -0.26072,4.39961 -0.86224,5.10693 -0.60155,0.70733 -1.67745,1.01166 -3.22771,0.91299 -1.47241,0.0927 -2.52606,-0.22366 -3.16096,-0.94899 -0.63492,-0.72532 -0.94458,-2.41563 -0.92899,-5.07093 z"
           style="font-variant:normal;font-weight:bold;font-stretch:normal;text-align:center;letter-spacing:-0.2px;word-spacing:-1.4082402px;text-anchor:middle;fill:#ffffff;fill-rule:nonzero;stroke:#ffffff;stroke-opacity:0;font-family:exo;-inkscape-font-specification:exo"
           id="path4007" />
        <path
           d="m 403.33837,560.90136 c -0.005,1.43707 0.48428,2.71089 1.46873,3.82146 0.98444,1.11057 2.4955,1.72139 4.53319,1.83247 1.67376,-0.0498 3.12666,-0.41374 4.35869,-1.09198 1.23201,-0.67824 1.93242,-1.17424 2.10123,-1.48798 l 1.17798,2.33996 4.42194,0 0,-14.8198 c -0.0342,-2.58562 -0.7428,-4.38176 -2.12572,-5.38844 -1.38296,-1.00663 -3.23501,-1.48379 -5.55618,-1.43148 -1.96098,-8.1e-4 -3.71946,0.10236 -5.27543,0.3095 -1.55598,0.20718 -3.02346,0.57735 -4.40244,1.11049 l 0,3.45795 c 0.62559,-0.0453 1.51837,-0.10355 2.67833,-0.17474 1.15996,-0.0711 2.32547,-0.13533 3.49655,-0.19252 1.17106,-0.0571 2.08606,-0.0874 2.745,-0.0907 0.89706,-0.0323 1.59289,0.12134 2.08747,0.46099 0.49457,0.33968 0.7454,1.05934 0.7525,2.15897 0.0175,0.0742 0.0225,0.30584 0.015,0.69499 -0.008,0.38918 -0.0125,0.61084 -0.015,0.66499 -0.077,0.0126 -0.61631,0.0185 -1.61776,0.0178 -1.00148,-7.2e-4 -2.00295,-0.004 -3.00441,-0.009 -1.00147,-0.005 -1.54073,-0.008 -1.61775,-0.009 -2.25073,0.0496 -3.85671,0.63438 -4.81794,1.75423 -0.96124,1.11987 -1.42923,2.4771 -1.40398,4.0717 z m 5.59992,-0.79399 0,-1.03198 c -0.0206,-0.48736 0.0816,-0.94611 0.30675,-1.37624 0.22511,-0.43011 0.69686,-0.69135 1.41523,-0.78374 l 5.13994,-0.39799 0,3.89395 c -0.0568,0.0685 -0.57672,0.3425 -1.55974,0.82199 -0.98304,0.4795 -2.08844,0.75349 -3.3162,0.82199 -0.53338,0.0292 -0.99312,-0.0747 -1.37923,-0.31175 -0.38613,-0.23703 -0.58838,-0.78244 -0.60675,-1.63623 z"
           style="font-variant:normal;font-weight:bold;font-stretch:normal;text-align:center;letter-spacing:-0.2px;word-spacing:-1.4082402px;text-anchor:middle;fill:#ffffff;fill-rule:nonzero;stroke:#ffffff;stroke-opacity:0;font-family:exo;-inkscape-font-specification:exo"
           id="path4009" />
        <path
           d="m 433.42736,560.55937 c 0.11845,2.61455 0.91868,4.28336 2.40069,5.00643 1.48201,0.72308 2.93508,1.01291 4.35922,0.86949 0.11213,-0.003 1.02295,-0.0386 2.73249,-0.10785 1.7095,-0.0692 3.54491,-0.15553 5.50622,-0.25896 1.96128,-0.10343 3.37565,-0.20782 4.24313,-0.31318 l 0,-4.58994 -11.16186,0 c -0.60971,0.0458 -1.16578,-0.0358 -1.66822,-0.245 -0.50246,-0.20916 -0.77304,-0.82081 -0.81174,-1.83497 l 0,-4.56794 11.82184,-0.378 0,-4.60394 -11.82184,-0.42199 0,-4.56795 c -0.0433,-0.5658 0.0433,-1.07413 0.25999,-1.52498 0.21666,-0.4508 0.82332,-0.68913 1.81998,-0.71499 l 11.56185,0 0,-4.62994 c -0.96938,-0.11868 -2.46395,-0.22614 -4.48372,-0.32236 -2.0198,-0.0962 -3.89659,-0.17281 -5.63037,-0.22993 -1.7338,-0.0571 -2.65638,-0.0863 -2.76774,-0.0877 -1.4731,-0.0878 -2.87826,0.28363 -4.21547,1.11436 -1.33723,0.83079 -2.05204,2.48597 -2.14445,4.96556 z"
           style="font-variant:normal;font-weight:bold;font-stretch:normal;text-align:center;letter-spacing:-0.2px;word-spacing:-1.4082402px;text-anchor:middle;fill:#ffffff;fill-rule:nonzero;stroke:#ffffff;stroke-opacity:0;font-family:exo;-inkscape-font-specification:exo"
           id="path4011" />
        <path
           d="m 454.16563,545.07557 7.41391,21.23972 6.25992,0 7.7059,-21.23972 -5.96792,0 -4.78394,14.67981 -4.63794,-14.67981 z"
           style="font-variant:normal;font-weight:bold;font-stretch:normal;text-align:center;letter-spacing:-0.2px;word-spacing:-1.4082402px;text-anchor:middle;fill:#ffffff;fill-rule:nonzero;stroke:#ffffff;stroke-opacity:0;font-family:exo;-inkscape-font-specification:exo"
           id="path4013" />
        <path
           d="m 477.45773,555.99543 c -0.0548,3.76329 0.64324,6.46658 2.09398,8.10989 1.45072,1.64332 3.98269,2.44664 7.5959,2.40997 3.65169,0.0542 6.19465,-0.71415 7.6289,-2.30497 1.43421,-1.59081 2.1212,-4.3291 2.06097,-8.21489 0.0534,-4.15577 -0.64738,-7.06406 -2.10222,-8.72489 -1.45487,-1.66079 -3.98409,-2.45911 -7.58765,-2.39497 -3.54496,-0.0791 -6.05743,0.68918 -7.5374,2.30497 -1.47999,1.61583 -2.19748,4.55412 -2.15248,8.81489 z m 5.59993,0 c -0.0367,-2.87716 0.2307,-4.72372 0.80224,-5.53968 0.57153,-0.81593 1.66743,-1.17601 3.28771,-1.08024 1.63076,-0.096 2.72966,0.26356 3.29671,1.07874 0.56702,0.81521 0.83143,2.66227 0.79324,5.54118 0.0267,2.6973 -0.26072,4.39961 -0.86224,5.10693 -0.60155,0.70733 -1.67745,1.01166 -3.22771,0.91299 -1.47241,0.0927 -2.52606,-0.22366 -3.16096,-0.94899 -0.63492,-0.72532 -0.94458,-2.41563 -0.92899,-5.07093 z"
           style="font-variant:normal;font-weight:bold;font-stretch:normal;text-align:center;letter-spacing:-0.2px;word-spacing:-1.4082402px;text-anchor:middle;fill:#ffffff;fill-rule:nonzero;stroke:#ffffff;stroke-opacity:0;font-family:exo;-inkscape-font-specification:exo"
           id="path4015" />
      </g>
    </g>
  </g>
</svg>
