<?xml version="1.0" encoding="UTF-8" standalone="no"?>
<!-- Created with Inkscape (http://www.inkscape.org/) -->

<svg
   xmlns:dc="http://purl.org/dc/elements/1.1/"
   xmlns:cc="http://creativecommons.org/ns#"
   xmlns:rdf="http://www.w3.org/1999/02/22-rdf-syntax-ns#"
   xmlns:svg="http://www.w3.org/2000/svg"
   xmlns="http://www.w3.org/2000/svg"
   xmlns:sodipodi="http://sodipodi.sourceforge.net/DTD/sodipodi-0.dtd"
   xmlns:inkscape="http://www.inkscape.org/namespaces/inkscape"
   width="100"
   height="100"
   id="svg5965"
   version="1.1"
   inkscape:version="0.48.4 r9939"
   sodipodi:docname="MALconfondoTRANSPARENTE.svg">
  <defs
     id="defs5967" />
  <sodipodi:namedview
     id="base"
     pagecolor="#ffffff"
     bordercolor="#666666"
     borderopacity="1.0"
     inkscape:pageopacity="0.0"
     inkscape:pageshadow="2"
     inkscape:zoom="1.979899"
     inkscape:cx="-82.115918"
     inkscape:cy="63.159458"
     inkscape:document-units="px"
     inkscape:current-layer="layer1"
     showgrid="false"
     inkscape:window-width="1280"
     inkscape:window-height="660"
     inkscape:window-x="-8"
     inkscape:window-y="-8"
     inkscape:window-maximized="1" />
  <metadata
     id="metadata5970">
    <rdf:RDF>
      <cc:Work
         rdf:about="">
        <dc:format>image/svg+xml</dc:format>
        <dc:type
           rdf:resource="http://purl.org/dc/dcmitype/StillImage" />
        <dc:title></dc:title>
      </cc:Work>
    </rdf:RDF>
  </metadata>
  <g
     inkscape:label="Capa 1"
     inkscape:groupmode="layer"
     id="layer1"
     transform="translate(0,-952.36218)">
    <path
       sodipodi:type="arc"
       style="fill:#ffffff;fill-opacity:0.58823529;fill-rule:evenodd;stroke:none"
       id="path7188"
       sodipodi:cx="-122.73354"
       sodipodi:cy="43.683994"
       sodipodi:rx="44.918434"
       sodipodi:ry="44.918434"
       d="m -77.815109,43.683994 a 44.918434,44.918434 0 1 1 -89.836871,0 44.918434,44.918434 0 1 1 89.836871,0 z"
       transform="translate(172.73354,958.67819)" />
    <path
       style="fill:#ff251c;fill-opacity:1;stroke:none"
       d="m 26.979445,1021.8275 c 0.07378,1.3751 0.683036,2.7123 1.792317,3.7081 l 0.46211,0.4077 c 2.218693,1.9941 5.601531,1.8219 7.594095,-0.3969 l 13.187498,-14.6976 13.224321,14.6578 c 1.998215,2.2134 5.381634,2.3982 7.595297,0.4002 l 0.460435,-0.4144 c 2.213617,-1.9988 2.372645,-5.4066 0.37443,-7.62 L 57.668846,1002.343 71.626739,986.79689 c 1.992581,-2.21874 1.819956,-5.62648 -0.398747,-7.61913 l -0.46232,-0.40883 c -2.218675,-1.99266 -5.600714,-1.79596 -7.593327,0.42277 L 50.008996,993.86366 36.784679,979.2064 c -1.998241,-2.21358 -5.405797,-2.3727 -7.619404,-0.37446 l -0.460334,0.41415 c -2.213627,1.99825 -2.373479,5.38087 -0.375261,7.59451 l 14.026015,15.5284 -13.981935,15.5733 c -0.996346,1.108 -1.468152,2.5107 -1.394354,3.8855 z"
       id="rect6491"
       inkscape:connector-curvature="0" />
  </g>
</svg>
