<?xml version="1.0" encoding="UTF-8" standalone="no"?>
<!-- Created with Inkscape (http://www.inkscape.org/) -->

<svg
   xmlns:dc="http://purl.org/dc/elements/1.1/"
   xmlns:cc="http://creativecommons.org/ns#"
   xmlns:rdf="http://www.w3.org/1999/02/22-rdf-syntax-ns#"
   xmlns:svg="http://www.w3.org/2000/svg"
   xmlns="http://www.w3.org/2000/svg"
   xmlns:sodipodi="http://sodipodi.sourceforge.net/DTD/sodipodi-0.dtd"
   xmlns:inkscape="http://www.inkscape.org/namespaces/inkscape"
   width="1000"
   height="500"
   id="svg5408"
   version="1.1"
   inkscape:version="0.48.4 r9939"
   sodipodi:docname="evophotoFINAL.svg">
  <defs
     id="defs5410" />
  <sodipodi:namedview
     id="base"
     pagecolor="#ffffff"
     bordercolor="#666666"
     borderopacity="1.0"
     inkscape:pageopacity="0.0"
     inkscape:pageshadow="2"
     inkscape:zoom="0.31299874"
     inkscape:cx="119.09558"
     inkscape:cy="562.54128"
     inkscape:document-units="px"
     inkscape:current-layer="layer1"
     showgrid="false"
     inkscape:window-width="1280"
     inkscape:window-height="660"
     inkscape:window-x="-8"
     inkscape:window-y="-8"
     inkscape:window-maximized="1"
     showguides="true"
     inkscape:guide-bbox="true" />
  <metadata
     id="metadata5413">
    <rdf:RDF>
      <cc:Work
         rdf:about="">
        <dc:format>image/svg+xml</dc:format>
        <dc:type
           rdf:resource="http://purl.org/dc/dcmitype/StillImage" />
        <dc:title></dc:title>
      </cc:Work>
    </rdf:RDF>
  </metadata>
  <g
     inkscape:label="Capa 1"
     inkscape:groupmode="layer"
     id="layer1"
     transform="translate(0,-552.36218)">
    <g
       id="g6748"
       transform="matrix(1.3988728,0,0,1.3988728,-124.93172,-364.74686)">
      <path
         sodipodi:nodetypes="sccs"
         inkscape:connector-curvature="0"
         id="rect5991"
         d="M 299.17358,856.39294 C 174.14664,856.1612 132.69327,917.73288 131.64256,998.7797 l 334.98637,0 C 465.57822,917.73288 420.33904,856.6176 299.17358,856.39294 z"
         style="fill:#af152d;fill-opacity:1;fill-rule:nonzero;stroke:#ffffff;stroke-width:3.50282025;stroke-miterlimit:4;stroke-opacity:1;stroke-dasharray:none" />
      <path
         sodipodi:nodetypes="zscsssz"
         inkscape:connector-curvature="0"
         id="path6009"
         d="m 150.80099,926.89053 c 1.17449,-1.4238 114.77638,3.69198 149.94563,3.69198 35.16918,0 144.83058,-3.90966 144.83058,-3.90966 0,0 5.84154,11.865 8.09773,21.11922 2.11616,8.67999 -133.87833,7.4727 -170.02447,9.66668 -36.14618,2.19398 -139.72816,-4.85231 -140.76582,-8.58251 -0.43702,-1.57103 6.74185,-20.5619 7.91635,-21.98571 z"
         style="fill:#fbf7ec;fill-opacity:1;stroke:none" />
      <path
         sodipodi:nodetypes="cscsszc"
         style="fill:#404c76;fill-opacity:1;stroke:none"
         d="m 142.47997,948.97621 c 0,0 120.75665,3.76742 158.51009,3.76742 37.75343,0 153.00754,-5.99342 153.00754,-5.99342 0,0 5.34713,15.98325 5.69462,27.79768 0.29838,10.14435 -138.25234,6.45144 -177.05453,8.96302 -38.80213,2.51164 -145.70863,-2.51646 -145.60849,-7.82042 0.10028,-5.30397 5.45077,-26.71428 5.45077,-26.71428 z"
         id="path6011"
         inkscape:connector-curvature="0" />
      <path
         sodipodi:nodetypes="cscsc"
         inkscape:connector-curvature="0"
         id="path5960"
         d="m 217.06632,736.18054 c 0,0 -15.15616,143.27455 83.35874,139.40227 98.51487,-3.87229 75.78068,-147.14684 75.78068,-147.14684 0,0 -25.19875,-43.72932 -91.50683,-37.9209 -66.3081,5.80844 -67.63259,45.66547 -67.63259,45.66547 z"
         style="fill:#dbcecf;fill-opacity:1;stroke:#01034a;stroke-width:1.93012536;stroke-linecap:butt;stroke-linejoin:miter;stroke-miterlimit:4;stroke-opacity:1;stroke-dasharray:none" />
      <path
         sodipodi:nodetypes="cssssc"
         style="fill:#000000;fill-opacity:1;stroke:none"
         d="m 299.76894,682.95016 c 0,0 1.29039,39.54326 -3.5447,61.30586 -4.82223,21.70474 -7.2022,34.47251 -38.2595,33.20788 -33.67335,-1.37111 -44.26081,11.30739 -52.95941,18.72622 -8.69861,7.41886 -2.04614,-102.80536 48.61009,-112.69812 43.03985,-8.40523 46.15352,-0.54184 46.15352,-0.54184 z"
         id="path5983"
         inkscape:connector-curvature="0" />
      <path
         inkscape:connector-curvature="0"
         id="path5985"
         d="m 299.45434,681.01528 c 0,0 -1.29041,43.45345 4.02819,63.24074 5.76885,21.46246 7.2022,34.47251 38.25949,33.20788 33.67335,-1.37111 44.26081,11.30739 52.95942,18.72622 8.69862,7.41886 2.04617,-102.80536 -48.61009,-112.69812 -43.03985,-8.40523 -46.63701,-2.47672 -46.63701,-2.47672 z"
         style="fill:#000000;fill-opacity:1;stroke:none"
         sodipodi:nodetypes="cssssc" />
      <path
         sodipodi:nodetypes="cc"
         inkscape:connector-curvature="0"
         id="path5987"
         d="m 252.82448,831.11135 c 13.53069,31.81744 59.86836,31.51208 82.05427,8.21437"
         style="fill:none;stroke:#000771;stroke-width:1.2152642;stroke-linecap:butt;stroke-linejoin:miter;stroke-miterlimit:4;stroke-opacity:1;stroke-dasharray:none" />
    </g>
    <g
       id="g6711"
       transform="matrix(1.8937204,-1.0763425,0.99388519,1.7486446,-1031.2402,-99.08421)">
      <g
         transform="matrix(1.574803,0,0,1.5705417,-245.27379,-488.9915)"
         id="g6699">
        <g
           transform="matrix(0.88114478,-0.47412952,0.47156707,0.88114478,-365.35311,331.2295)"
           id="g6703">
          <g
             transform="matrix(0.72046398,0.695374,-0.69161583,0.72046397,743.84137,-104.84708)"
             id="g6707">
            <path
               style="fill:#ffffff;fill-opacity:1;stroke:none"
               d="m 447.28615,822.3293 c 0,0 54.27295,44.44458 65.97709,68.1692 10.70407,21.69745 25.84395,29.82523 23.85053,18.01226 -4.67132,-27.68222 -67.46331,-78.99293 -80.24292,-86.98018 -12.7796,-7.98726 -17.57195,-10.38343 -9.5847,0.79872 z"
               id="path6693"
               inkscape:connector-curvature="0"
               sodipodi:nodetypes="csssc" />
            <path
               style="fill:#ffffff;fill-opacity:1;stroke:none"
               d="m 448.08488,406.70849 c 0,0 0.79872,-23.16304 0,-34.34519 -0.79873,-11.18216 4.00991,-2.79878 17.57195,-2.39618 10.70554,0.31781 26.35794,6.3898 26.35794,6.3898 0,0 6.3898,-5.59107 -13.57833,-11.18215 -19.96814,-5.59108 -39.93627,-7.98725 -39.93627,-7.98725 0,0 2.39618,34.34519 3.1949,43.13116 0.79873,8.78598 4.79235,14.37706 6.38981,6.38981 z"
               id="path6697"
               inkscape:connector-curvature="0"
               transform="translate(0,452.36218)"
               sodipodi:nodetypes="csscscsc" />
          </g>
        </g>
      </g>
    </g>
  </g>
</svg>
