<?xml version="1.0" encoding="UTF-8" standalone="no"?>
<!-- Created with Inkscape (http://www.inkscape.org/) -->

<svg
   xmlns:dc="http://purl.org/dc/elements/1.1/"
   xmlns:cc="http://creativecommons.org/ns#"
   xmlns:rdf="http://www.w3.org/1999/02/22-rdf-syntax-ns#"
   xmlns:svg="http://www.w3.org/2000/svg"
   xmlns="http://www.w3.org/2000/svg"
   xmlns:sodipodi="http://sodipodi.sourceforge.net/DTD/sodipodi-0.dtd"
   xmlns:inkscape="http://www.inkscape.org/namespaces/inkscape"
   width="60"
   height="60"
   id="svg2"
   version="1.1"
   inkscape:version="0.48.4 r9939"
   sodipodi:docname="RELOJ EVO.svg">
  <defs
     id="defs4" />
  <sodipodi:namedview
     id="base"
     pagecolor="#ffffff"
     bordercolor="#666666"
     borderopacity="1.0"
     inkscape:pageopacity="0.0"
     inkscape:pageshadow="2"
     inkscape:zoom="3.5957202"
     inkscape:cx="4.7660506"
     inkscape:cy="26.342129"
     inkscape:document-units="px"
     inkscape:current-layer="layer1"
     showgrid="false"
     inkscape:snap-center="true"
     inkscape:window-width="1280"
     inkscape:window-height="660"
     inkscape:window-x="-8"
     inkscape:window-y="-8"
     inkscape:window-maximized="1" />
  <metadata
     id="metadata7">
    <rdf:RDF>
      <cc:Work
         rdf:about="">
        <dc:format>image/svg+xml</dc:format>
        <dc:type
           rdf:resource="http://purl.org/dc/dcmitype/StillImage" />
        <dc:title></dc:title>
      </cc:Work>
    </rdf:RDF>
  </metadata>
  <g
     inkscape:label="Capa 1"
     inkscape:groupmode="layer"
     id="layer1"
     transform="translate(0,-992.36218)">
    <g
       transform="translate(-1081.343,368.63955)"
       id="g3807">
      <path
         sodipodi:nodetypes="cscscscscssccsccscssccsscsscssscccssscc"
         inkscape:connector-curvature="0"
         id="path2996"
         d="m 1114.9062,627.9375 c -2.1172,0.18894 -4.1926,1.4697 -5.4062,4.625 -2.0859,5.42311 -0.5487,3.34242 -3.4688,8.20933 -3.0591,4.17162 -5.4047,6.95006 -6.6562,7.22817 -1.2515,0.27811 -8.6345,-0.27811 -9.4688,0 -1.0775,0.10429 -3.625,0.82209 -3.625,4.4375 0,3.61541 0.069,20.38517 0.069,20.38517 0,0 -0.039,3.56594 2.8688,3.55233 4.2292,-0.0198 9.875,0.125 9.875,0.125 0,0 3.6643,-0.43997 7.6296,1.81564 1.8348,1.04373 4.0079,1.9445 11.2149,2.63278 6.7828,0.64777 7.0103,-0.20709 9.5133,-1.31953 3.3373,-1.18196 4.4452,-6.05084 3.6109,-7.44139 -0.8344,-1.39054 0.5751,-0.2877 1.6875,-3.625 1.1124,-3.33731 0,-5.40625 0,-5.40625 0,0 2.3515,-2.50497 1.6562,-7.09375 -0.4773,-0.82683 3.3216,-6.39865 -1.4062,-9.875 -4.7279,-3.47636 -10.5625,-2.21875 -10.5625,-2.21875 0,0 2.1942,-8.88441 -0.8125,-13.09375 -1.1733,-1.64258 -3.9966,-3.18042 -6.7188,-2.9375 z m 0.1563,3.65625 c 2.503,-0.13905 5.0328,1.80341 3.7813,6.53125 -0.8028,3.03277 -2.7813,8.89848 -2.7813,9.59375 0,0.69527 0.9673,0.40625 2.2187,0.40625 1.2516,0 9.4376,-0.125 9.4376,-0.125 0,0 3.6218,0.41898 3.3437,4.3125 -0.2781,3.89352 -2.4937,4.31101 -1.9375,5.5625 0.5562,1.25149 0.814,4.16881 -0.4375,5.28125 -1.2514,1.11243 0.5703,1.64699 -0.125,3.59375 -0.6953,1.94676 -2.2156,2.66105 -1.9375,4.46875 0.2781,1.80771 0.2698,6.52183 -7.6562,5.6875 -7.926,-0.83432 -13.5667,-3.52422 -16,-3.59375 -1.8078,-0.13905 -2.8082,-0.78761 -2.8082,-0.78761 l -0.026,-19.57575 c 0,0 -0.7603,-0.22262 0.4907,-0.91789 1.2515,-0.69527 8.7376,-8.22206 10.4062,-11.28125 1.2004,-2.20073 1.5284,-9.01719 4.0313,-9.15625 z"
         style="fill:#ffffff;fill-opacity:1;stroke:#ffffff;stroke-width:1px;stroke-linecap:butt;stroke-linejoin:miter;stroke-opacity:1" />
      <g
         transform="translate(0.0695271,-0.7647981)"
         id="g3801">
        <path
           style="fill:#4ac06d;fill-opacity:1;stroke:none"
           d="m 1087.9187,666.69881 10.804,1.32086 c 0,0 0.052,2.5485 0.01,4.22291 0,0 0.1906,3.58892 -3.0386,3.25559 -2.1393,-0.0269 -6.2002,0.14678 -6.8116,-0.21064 -0.7544,-0.44096 -0.9465,-0.755 -0.9752,-3.33341 -0.035,-3.11003 0.012,-5.25535 0.012,-5.25535 z"
           id="path2998"
           inkscape:connector-curvature="0"
           sodipodi:nodetypes="ccccsscc" />
        <rect
           style="fill:#ff2438;fill-opacity:1;fill-rule:nonzero;stroke:none"
           id="rect3768-1"
           width="9.3973751"
           height="10.892225"
           x="-660.94226"
           y="1091.6958"
           ry="1.5235515"
           transform="matrix(0.00580534,-0.99998315,1,0,0,0)" />
        <rect
           style="fill:#ffc038;fill-opacity:1;fill-rule:nonzero;stroke:none"
           id="rect3768"
           width="8.4919558"
           height="10.845235"
           x="-668.20312"
           y="1087.8768"
           transform="matrix(0,-1,1,0,0,0)" />
        <path
           sodipodi:type="arc"
           style="color:#000000;fill:#2a3152;fill-opacity:1;fill-rule:evenodd;stroke:#ffffff;stroke-width:0.46551716;stroke-miterlimit:4;stroke-opacity:1;stroke-dasharray:none;marker:none;visibility:visible;display:inline;overflow:visible;enable-background:accumulate"
           id="path3791"
           sodipodi:cx="1093.8003"
           sodipodi:cy="670.58887"
           sodipodi:rx="2.3639214"
           sodipodi:ry="2.1553402"
           d="m 1096.1642,670.58887 c 0,1.19036 -1.0583,2.15534 -2.3639,2.15534 -1.3056,0 -2.3639,-0.96498 -2.3639,-2.15534 0,-1.19036 1.0583,-2.15534 2.3639,-2.15534 1.3056,0 2.3639,0.96498 2.3639,2.15534 z"
           transform="matrix(1.1159014,0,0,1.0967742,-127.23358,-64.275765)" />
      </g>
    </g>
  </g>
</svg>
