<?xml version="1.0" encoding="UTF-8" standalone="no"?>
<!-- Created with Inkscape (http://www.inkscape.org/) -->

<svg
   xmlns:dc="http://purl.org/dc/elements/1.1/"
   xmlns:cc="http://creativecommons.org/ns#"
   xmlns:rdf="http://www.w3.org/1999/02/22-rdf-syntax-ns#"
   xmlns:svg="http://www.w3.org/2000/svg"
   xmlns="http://www.w3.org/2000/svg"
   xmlns:sodipodi="http://sodipodi.sourceforge.net/DTD/sodipodi-0.dtd"
   xmlns:inkscape="http://www.inkscape.org/namespaces/inkscape"
   width="100"
   height="100"
   id="svg5965"
   version="1.1"
   inkscape:version="0.48.4 r9939"
   sodipodi:docname="bienconfondotransparente.svg">
  <defs
     id="defs5967" />
  <sodipodi:namedview
     id="base"
     pagecolor="#ffffff"
     bordercolor="#666666"
     borderopacity="1.0"
     inkscape:pageopacity="0.0"
     inkscape:pageshadow="2"
     inkscape:zoom="1.979899"
     inkscape:cx="-15.621234"
     inkscape:cy="63.159458"
     inkscape:document-units="px"
     inkscape:current-layer="layer1"
     showgrid="false"
     inkscape:window-width="1280"
     inkscape:window-height="660"
     inkscape:window-x="-8"
     inkscape:window-y="-8"
     inkscape:window-maximized="1" />
  <metadata
     id="metadata5970">
    <rdf:RDF>
      <cc:Work
         rdf:about="">
        <dc:format>image/svg+xml</dc:format>
        <dc:type
           rdf:resource="http://purl.org/dc/dcmitype/StillImage" />
        <dc:title></dc:title>
      </cc:Work>
    </rdf:RDF>
  </metadata>
  <g
     inkscape:label="Capa 1"
     inkscape:groupmode="layer"
     id="layer1"
     transform="translate(0,-952.36218)">
    <path
       sodipodi:type="arc"
       style="fill:#ffffff;fill-opacity:1;fill-rule:evenodd;stroke:none"
       id="path7188"
       sodipodi:cx="-122.73354"
       sodipodi:cy="43.683994"
       sodipodi:rx="44.918434"
       sodipodi:ry="44.918434"
       d="m -77.815109,43.683994 a 44.918434,44.918434 0 1 1 -89.836871,0 44.918434,44.918434 0 1 1 89.836871,0 z"
       transform="translate(172.73354,958.67819)" />
    <path
       style="fill:#8cc657;fill-opacity:0.99607843;stroke:none"
       d="m 73.729049,978.63237 c -1.283033,0.0764 -2.541895,0.64498 -3.473736,1.6901 l -12.30935,13.82489 -16.599056,18.59594 c -1.845784,-2.0485 -3.730079,-4.1104 -3.730079,-4.1104 l -7.856592,-9.34514 c -1.863468,-2.0837 -5.035547,-2.2261 -7.110522,-0.3518 l -0.442936,0.3811 c -1.037418,0.93704 -1.586189,2.19534 -1.655198,3.48864 -0.06859,1.2934 0.350425,2.6236 1.282161,3.6643 l 15.759834,18.146 0.06975,-0.2053 c 1.863569,2.0815 5.035563,2.2701 7.11052,0.3958 l 0.419683,-0.381 c 0.150809,-0.1265 0.289048,-0.2969 0.4196,-0.4398 l 0.139884,-0.1465 c 0.0486,-0.075 0.09465,-0.125 0.13991,-0.1839 l 12.0529,-13.5209 c 0,0 7.301171,-7.9817 7.157167,-8.0031 l 13.055434,-14.64971 c 1.863532,-2.08923 1.701947,-5.28339 -0.373037,-7.15912 l -0.442933,-0.39945 c -1.037481,-0.93781 -2.330502,-1.36404 -3.613531,-1.29065 z"
       id="path7133"
       inkscape:connector-curvature="0"
       sodipodi:nodetypes="scccccccscccccccccccccs" />
  </g>
</svg>
